<svg class="arrow-svg" width="54" height="54" viewBox="-3 -3 57 57" fill="none" xmlns="http://www.w3.org/2000/svg">
<path class="arrow-svg__path1" d="M33 25V27H22V29L19 26L22 23V25H33Z" fill="#292929"/>
<path class="arrow-svg__path2" d="M26 50C12.7452 50 2 39.2548 2 26H-2C-2 41.464 10.536 54 26 54V50ZM50 26C50 39.2548 39.2548 50 26 50V54C41.464 54 54 41.464 54 26H50ZM26 2C39.2548 2 50 12.7452 50 26H54C54 10.536 41.464 -2 26 -2V2ZM26 -2C10.536 -2 -2 10.536 -2 26H2C2 12.7452 12.7452 2 26 2V-2Z" fill="#F1CDB3"/>
</svg>
